<svg version="1.1" id="Layer_1" xmlns="http://www.w3.org/2000/svg" xmlns:xlink="http://www.w3.org/1999/xlink" x="0px" y="0px"
	 width="100%" viewBox="0 0 197 198" enable-background="new 0 0 197 198" xml:space="preserve">
<path fill="#010101" opacity="1.000000" stroke="none" 
	d="
M106.000000,199.000000 
	C70.688721,199.000000 35.877449,199.000000 1.033087,199.000000 
	C1.033087,133.063873 1.033087,67.127708 1.033087,1.095778 
	C66.561111,1.095778 132.122406,1.095778 197.841858,1.095778 
	C197.841858,66.999702 197.841858,132.999817 197.841858,199.000000 
	C167.461334,199.000000 136.980667,199.000000 106.000000,199.000000 
M73.869461,104.497932 
	C73.869461,99.163597 73.869461,93.829269 73.869461,88.494934 
	C75.777390,89.385216 76.429756,90.309868 76.894012,91.320892 
	C80.290977,98.718575 83.594841,106.159462 87.041451,113.533722 
	C89.218849,118.192390 93.337784,120.525566 97.877617,119.795135 
	C102.306427,119.082581 105.595360,116.540642 105.751968,112.043396 
	C106.109459,101.778221 105.864876,91.492096 105.864876,81.113663 
	C102.830490,81.113663 100.234795,81.113663 96.848618,81.113663 
	C96.848618,91.238724 96.848618,101.178474 96.848618,111.118217 
	C95.181755,110.325539 94.493317,109.451141 94.040833,108.468140 
	C90.636848,101.073135 87.309563,93.642784 83.896233,86.252144 
	C81.755188,81.616287 77.865227,79.404137 73.024780,80.102394 
	C68.531738,80.750549 65.421989,83.388695 65.285316,87.909920 
	C64.974556,98.189659 65.187347,108.485222 65.187347,118.824036 
	C68.274910,118.824036 70.965599,118.824036 73.869987,118.824036 
	C73.869987,114.122963 73.869987,109.807800 73.869461,104.497932 
M114.181549,98.617928 
	C111.628342,105.317360 109.075142,112.016785 106.404877,119.023361 
	C109.920708,119.023361 112.710251,119.023361 115.569138,119.023361 
	C119.600967,108.842934 123.580154,98.795433 128.086792,87.416092 
	C131.568069,96.701233 134.469162,104.567039 137.466217,112.396111 
	C140.386124,120.023621 140.429214,120.007126 149.219910,118.692154 
	C145.092850,107.797844 140.966095,96.981346 136.903610,86.140770 
	C135.377625,82.068733 132.526749,80.088898 128.199478,80.035889 
	C123.626419,79.979874 120.701920,82.187599 119.080437,86.355263 
	C117.577904,90.217178 116.043800,94.066811 114.181549,98.617928 
M174.373642,89.501183 
	C176.510498,89.501183 178.647354,89.501183 180.987610,89.501183 
	C180.987610,86.477203 180.987610,83.897232 180.987610,81.103859 
	C174.818771,81.103859 168.833267,80.752998 162.908142,81.200981 
	C156.787369,81.663742 151.570831,84.957436 150.375488,90.984299 
	C149.220688,96.806656 149.323318,103.170662 150.335541,109.044823 
	C151.267563,114.453552 155.848618,118.063835 161.342407,118.603928 
	C167.862762,119.244949 174.494354,118.754692 181.030396,118.754692 
	C181.030396,116.055008 181.030396,113.582520 181.030396,110.629234 
	C178.407074,110.629234 175.948318,110.633636 173.489609,110.628044 
	C170.824020,110.621979 168.150116,110.737831 165.494553,110.569016 
	C159.224609,110.170418 157.141251,107.495232 157.138153,100.107872 
	C157.135040,92.682671 159.216324,89.964844 165.415283,89.567879 
	C168.070770,89.397835 170.744614,89.514725 174.373642,89.501183 
M40.547203,82.688179 
	C31.749365,81.858299 22.951527,81.028412 14.141417,80.197372 
	C14.141417,84.058067 14.141417,86.622932 14.141417,89.509369 
	C20.594204,89.509369 26.745552,89.283501 32.858871,89.665764 
	C34.417000,89.763191 36.802010,91.558838 37.147480,92.978188 
	C37.837376,95.812561 35.640659,97.031586 32.890331,97.031784 
	C28.563776,97.032112 24.163452,96.575447 19.941574,97.243134 
	C17.808889,97.580414 14.511464,99.782303 14.312544,101.448219 
	C13.617602,107.268196 14.043448,113.222008 14.043448,118.924942 
	C17.038372,118.924942 19.469938,118.924942 22.347015,118.924942 
	C22.347015,114.256142 22.347015,109.845543 22.347015,105.104813 
	C26.095390,105.104813 29.393782,105.134827 32.691444,105.098549 
	C39.512020,105.023537 43.137280,102.758072 45.231392,97.319084 
	C47.278248,92.002838 46.032635,87.584000 40.547203,82.688179 
M50.109531,102.497086 
	C50.109531,107.934959 50.109531,113.372833 50.109531,118.908173 
	C53.240482,118.908173 55.970146,118.908173 58.645073,118.908173 
	C58.645073,106.183487 58.645073,93.776192 58.645073,81.281616 
	C55.729080,81.281616 53.043053,81.281616 50.109501,81.281616 
	C50.109501,88.252357 50.109501,94.875252 50.109531,102.497086 
z"/>
<path fill="#F3F3F3" opacity="1.000000" stroke="none" 
	d="
M73.869720,104.995285 
	C73.869987,109.807800 73.869987,114.122963 73.869987,118.824036 
	C70.965599,118.824036 68.274910,118.824036 65.187347,118.824036 
	C65.187347,108.485222 64.974556,98.189659 65.285316,87.909920 
	C65.421989,83.388695 68.531738,80.750549 73.024780,80.102394 
	C77.865227,79.404137 81.755188,81.616287 83.896233,86.252144 
	C87.309563,93.642784 90.636848,101.073135 94.040833,108.468140 
	C94.493317,109.451141 95.181755,110.325539 96.848618,111.118217 
	C96.848618,101.178474 96.848618,91.238724 96.848618,81.113663 
	C100.234795,81.113663 102.830490,81.113663 105.864876,81.113663 
	C105.864876,91.492096 106.109459,101.778221 105.751968,112.043396 
	C105.595360,116.540642 102.306427,119.082581 97.877617,119.795135 
	C93.337784,120.525566 89.218849,118.192390 87.041451,113.533722 
	C83.594841,106.159462 80.290977,98.718575 76.894012,91.320892 
	C76.429756,90.309868 75.777390,89.385216 73.869461,88.494934 
	C73.869461,93.829269 73.869461,99.163597 73.869720,104.995285 
z"/>
<path fill="#F5F5F5" opacity="1.000000" stroke="none" 
	d="
M114.352570,98.269890 
	C116.043800,94.066811 117.577904,90.217178 119.080437,86.355263 
	C120.701920,82.187599 123.626419,79.979874 128.199478,80.035889 
	C132.526749,80.088898 135.377625,82.068733 136.903610,86.140770 
	C140.966095,96.981346 145.092850,107.797844 149.219910,118.692154 
	C140.429214,120.007126 140.386124,120.023621 137.466217,112.396111 
	C134.469162,104.567039 131.568069,96.701233 128.086792,87.416092 
	C123.580154,98.795433 119.600967,108.842934 115.569138,119.023361 
	C112.710251,119.023361 109.920708,119.023361 106.404877,119.023361 
	C109.075142,112.016785 111.628342,105.317360 114.352570,98.269890 
z"/>
<path fill="#F9F9F9" opacity="1.000000" stroke="none" 
	d="
M173.891876,89.501205 
	C170.744614,89.514725 168.070770,89.397835 165.415283,89.567879 
	C159.216324,89.964844 157.135040,92.682671 157.138153,100.107872 
	C157.141251,107.495232 159.224609,110.170418 165.494553,110.569016 
	C168.150116,110.737831 170.824020,110.621979 173.489609,110.628044 
	C175.948318,110.633636 178.407074,110.629234 181.030396,110.629234 
	C181.030396,113.582520 181.030396,116.055008 181.030396,118.754692 
	C174.494354,118.754692 167.862762,119.244949 161.342407,118.603928 
	C155.848618,118.063835 151.267563,114.453552 150.335541,109.044823 
	C149.323318,103.170662 149.220688,96.806656 150.375488,90.984299 
	C151.570831,84.957436 156.787369,81.663742 162.908142,81.200981 
	C168.833267,80.752998 174.818771,81.103859 180.987610,81.103859 
	C180.987610,83.897232 180.987610,86.477203 180.987610,89.501183 
	C178.647354,89.501183 176.510498,89.501183 173.891876,89.501205 
z"/>
<path fill="#F9F9F9" opacity="1.000000" stroke="none" 
	d="
M40.883385,82.887619 
	C46.032635,87.584000 47.278248,92.002838 45.231392,97.319084 
	C43.137280,102.758072 39.512020,105.023537 32.691444,105.098549 
	C29.393782,105.134827 26.095390,105.104813 22.347015,105.104813 
	C22.347015,109.845543 22.347015,114.256142 22.347015,118.924942 
	C19.469938,118.924942 17.038372,118.924942 14.043448,118.924942 
	C14.043448,113.222008 13.617602,107.268196 14.312544,101.448219 
	C14.511464,99.782303 17.808889,97.580414 19.941574,97.243134 
	C24.163452,96.575447 28.563776,97.032112 32.890331,97.031784 
	C35.640659,97.031586 37.837376,95.812561 37.147480,92.978188 
	C36.802010,91.558838 34.417000,89.763191 32.858871,89.665764 
	C26.745552,89.283501 20.594204,89.509369 14.141417,89.509369 
	C14.141417,86.622932 14.141417,84.058067 14.141417,80.197372 
	C22.951527,81.028412 31.749365,81.858299 40.883385,82.887619 
z"/>
<path fill="#F0F0F0" opacity="1.000000" stroke="none" 
	d="
M50.109516,101.997620 
	C50.109501,94.875252 50.109501,88.252357 50.109501,81.281616 
	C53.043053,81.281616 55.729080,81.281616 58.645073,81.281616 
	C58.645073,93.776192 58.645073,106.183487 58.645073,118.908173 
	C55.970146,118.908173 53.240482,118.908173 50.109531,118.908173 
	C50.109531,113.372833 50.109531,107.934959 50.109516,101.997620 
z"/>
</svg>